<svg width="840" height="840" viewBox="0 0 840 840" fill="none" xmlns="http://www.w3.org/2000/svg">
<path d="M420 822.007C602.83 822.007 751.044 737.81 751.044 633.948C751.044 530.086 602.83 445.889 420 445.889C237.169 445.889 88.9558 530.086 88.9558 633.948C88.9558 737.81 237.169 822.007 420 822.007Z" fill="#F5F5F5"/>
<path d="M557.76 752.522L310.649 609.84C308.475 608.588 306.669 606.784 305.414 604.612C304.159 602.44 303.498 599.976 303.498 597.467C303.498 594.958 304.159 592.493 305.414 590.321C306.669 588.149 308.475 586.346 310.649 585.094L335.025 569.722C339.233 567.298 344.004 566.022 348.86 566.022C353.716 566.022 358.487 567.298 362.695 569.722L609.84 712.421C612.014 713.673 613.819 715.476 615.074 717.648C616.33 719.821 616.991 722.285 616.991 724.794C616.991 727.303 616.33 729.767 615.074 731.94C613.819 734.112 612.014 735.915 609.84 737.167L585.463 752.522C581.253 754.959 576.475 756.242 571.611 756.242C566.747 756.242 561.97 754.959 557.76 752.522Z" fill="#E0E0E0"/>
<path d="M182.028 622.44C211.645 622.44 235.654 608.653 235.654 591.646C235.654 574.638 211.645 560.851 182.028 560.851C152.411 560.851 128.402 574.638 128.402 591.646C128.402 608.653 152.411 622.44 182.028 622.44Z" fill="#E6E6E6"/>
<path d="M645.389 629.496L668.909 643.02C668.909 643.02 656.897 605.27 663.298 567.218C665.717 552.838 670.908 545.698 672.722 541.85C674.537 538.003 688.598 514.231 676.082 503.345C663.566 492.458 634.452 514.349 636.031 572.93C636.749 592.105 639.893 611.112 645.389 629.496Z" fill="#428E8D"/>
<path opacity="0.5" d="M645.389 629.496L668.909 643.02C668.909 643.02 656.897 605.27 663.298 567.218C665.717 552.838 670.908 545.698 672.722 541.85C674.537 538.003 688.598 514.231 676.082 503.345C663.566 492.458 634.452 514.349 636.031 572.93C636.749 592.105 639.893 611.112 645.389 629.496Z" fill="black"/>
<path d="M656.326 636.619C656.154 636.623 655.986 636.573 655.845 636.477C655.703 636.38 655.595 636.242 655.536 636.082C655.452 635.83 646.464 611.268 646.75 571.788C647.035 532.308 667.783 510.871 667.985 510.67C668.063 510.591 668.156 510.528 668.258 510.486C668.36 510.443 668.47 510.421 668.581 510.421C668.692 510.421 668.802 510.443 668.904 510.486C669.007 510.528 669.1 510.591 669.178 510.67C669.256 510.748 669.319 510.841 669.361 510.943C669.404 511.045 669.426 511.155 669.426 511.266C669.426 511.377 669.404 511.487 669.361 511.589C669.319 511.691 669.256 511.784 669.178 511.862C668.976 512.064 648.715 532.862 648.43 571.805C648.144 610.747 657.014 635.275 657.115 635.51C657.191 635.72 657.18 635.951 657.086 636.152C656.991 636.354 656.821 636.51 656.611 636.586C656.519 636.614 656.422 636.626 656.326 636.619Z" fill="white"/>
<path d="M655.2 635.275L687.355 653.755C690.705 655.736 694.679 656.381 698.484 655.562C702.289 654.743 705.645 652.52 707.884 649.337C710.013 646.025 710.911 642.071 710.421 638.165C708.876 621.466 701.618 617.618 710.505 610.176C719.393 602.734 721.711 602.213 721.207 595.056C720.703 587.899 715.814 584.774 713.496 581.952C711.177 579.13 704.76 573.216 709.128 564.48C713.496 555.744 719.46 547.294 710.421 543.43C705.028 541.111 696.041 544.202 690.127 550.62C684.213 557.038 679.341 561.658 673.68 563.203C668.018 564.749 656.225 565.001 656.729 574.762C657.233 584.522 659.82 587.866 657.501 592.217C653.133 600.348 634.133 604.968 655.2 635.275Z" fill="#428E8D"/>
<path d="M671.093 645.221C670.883 645.214 670.683 645.132 670.529 644.991C670.375 644.849 670.277 644.656 670.253 644.448C670.253 643.877 665.314 586.219 704.962 547.848C705.125 547.713 705.334 547.645 705.545 547.657C705.757 547.67 705.956 547.762 706.103 547.915C706.249 548.068 706.333 548.271 706.336 548.483C706.34 548.695 706.263 548.9 706.121 549.058C667.044 586.874 671.882 643.726 671.933 644.297C671.952 644.517 671.883 644.736 671.741 644.906C671.6 645.076 671.397 645.183 671.177 645.204L671.093 645.221Z" fill="white"/>
<path d="M677.46 595.594C677.248 595.594 677.044 595.515 676.889 595.372C676.733 595.229 676.637 595.032 676.62 594.821C676.268 590.353 675.01 586.003 672.921 582.037C670.833 578.071 667.959 574.573 664.474 571.754C664.383 571.691 664.305 571.61 664.246 571.516C664.187 571.422 664.147 571.318 664.128 571.208C664.109 571.099 664.112 570.987 664.137 570.879C664.162 570.771 664.208 570.669 664.272 570.578C664.334 570.488 664.414 570.411 664.506 570.352C664.598 570.293 664.701 570.253 664.809 570.234C664.917 570.215 665.028 570.218 665.135 570.243C665.241 570.267 665.342 570.313 665.431 570.377C669.145 573.322 672.207 577.007 674.422 581.197C676.637 585.387 677.958 589.992 678.3 594.72C678.319 594.945 678.248 595.168 678.103 595.341C677.959 595.514 677.752 595.623 677.527 595.644L677.46 595.594Z" fill="white"/>
<path d="M674.721 605.489C674.518 605.491 674.321 605.419 674.167 605.287C674 605.139 673.898 604.931 673.882 604.708C673.867 604.485 673.939 604.265 674.083 604.094C674.486 603.624 684.415 592.67 707.683 595.577C707.903 595.606 708.103 595.722 708.239 595.898C708.374 596.074 708.434 596.297 708.405 596.518C708.376 596.739 708.261 596.941 708.085 597.079C707.91 597.217 707.687 597.281 707.465 597.257C685.121 594.451 675.427 605.102 675.326 605.203C675.25 605.289 675.157 605.358 675.053 605.407C674.949 605.457 674.836 605.484 674.721 605.489Z" fill="white"/>
<path d="M550.233 735.47L332.909 609.991C317.57 601.138 305.138 577.382 305.138 556.937V91.5768C305.138 71.1312 317.57 61.74 332.909 70.5936L550.233 196.073C565.572 204.926 578.004 228.682 578.004 249.127V714.487C578.004 734.916 565.572 744.324 550.233 735.47Z" fill="#455A64"/>
<path d="M575.265 181.44L357.924 55.9608C351.372 52.1808 345.357 51.744 340.603 54.0624C340.021 54.3539 339.46 54.6851 338.923 55.0536L314.563 69.216C319.469 66.276 325.886 66.4944 332.925 70.56L550.25 196.039C565.589 204.893 578.021 228.648 578.021 249.094V714.454C578.021 725.273 574.543 732.934 568.999 736.562L593.04 722.568C599.172 719.309 603.12 711.329 603.12 699.888V234.528C603.12 214.049 590.604 190.294 575.265 181.44Z" fill="#37474F"/>
<path d="M578.004 249.094V714.454C578.004 725.273 574.526 732.934 568.982 736.562L593.04 722.568C599.172 719.309 603.12 711.329 603.12 699.888V234.528L578.088 249.06L578.004 249.094Z" fill="#263238"/>
<path d="M603.036 270.631L578.004 285.079V296.369L603.036 281.904V270.631Z" fill="#37474F"/>
<path d="M592.065 345.71C589.831 347.004 588.016 345.626 588.016 342.653V318.377C588.039 316.859 588.417 315.368 589.12 314.023C589.823 312.678 590.832 311.517 592.065 310.632C594.3 309.338 596.114 310.632 596.114 313.69V337.966C596.091 339.483 595.713 340.974 595.01 342.319C594.307 343.664 593.298 344.826 592.065 345.71Z" fill="#37474F"/>
<path d="M588 342.72V318.377C588.022 316.859 588.4 315.368 589.104 314.023C589.807 312.678 590.815 311.517 592.048 310.632C592.417 310.374 592.846 310.217 593.294 310.176C593.742 310.135 594.193 310.211 594.602 310.397L591.561 308.834C591.145 308.634 590.684 308.547 590.224 308.583C589.764 308.618 589.321 308.775 588.94 309.036C587.706 309.921 586.696 311.082 585.99 312.427C585.284 313.771 584.902 315.262 584.875 316.781V341.04C584.812 341.653 584.905 342.272 585.146 342.839C585.387 343.406 585.768 343.902 586.252 344.282L589.428 345.962C588.922 345.598 588.523 345.106 588.272 344.536C588.021 343.965 587.927 343.339 588 342.72Z" fill="#455A64"/>
<path d="M592.065 404.46C589.831 405.754 588.016 404.46 588.016 401.402V377.126C588.04 375.609 588.419 374.118 589.122 372.774C589.825 371.429 590.833 370.267 592.065 369.382C594.3 368.088 596.114 369.382 596.114 372.456V396.715C596.094 398.233 595.717 399.725 595.014 401.071C594.31 402.416 593.3 403.577 592.065 404.46Z" fill="#37474F"/>
<path d="M588 401.402V377.126C588.024 375.609 588.402 374.119 589.105 372.774C589.808 371.429 590.816 370.267 592.049 369.382C592.419 369.128 592.848 368.974 593.295 368.933C593.742 368.892 594.192 368.965 594.602 369.146L591.561 367.567C591.148 367.358 590.685 367.267 590.223 367.302C589.761 367.338 589.317 367.499 588.941 367.769C587.703 368.651 586.691 369.811 585.985 371.157C585.278 372.502 584.898 373.994 584.875 375.514V399.84C584.81 400.453 584.903 401.072 585.144 401.64C585.385 402.207 585.766 402.703 586.253 403.082L589.428 404.762C588.902 404.39 588.49 403.878 588.237 403.285C587.985 402.692 587.903 402.04 588 401.402Z" fill="#455A64"/>
<path d="M542.64 209.126L329.078 85.7808C328.187 85.2681 327.177 84.9973 326.149 84.9954C325.121 84.9935 324.11 85.2605 323.216 85.7699C322.323 86.2794 321.579 87.0135 321.057 87.8995C320.535 88.7855 320.254 89.7926 320.241 90.8208V556.937C320.241 572.494 331.279 591.595 344.753 599.374L553.073 719.712C554.061 720.28 555.181 720.579 556.32 720.578C557.46 720.577 558.58 720.277 559.567 719.707C560.554 719.137 561.374 718.317 561.944 717.33C562.514 716.343 562.815 715.224 562.817 714.084V244.121C562.901 231.286 553.795 215.544 542.64 209.126Z" fill="#428E8D"/>
<path opacity="0.9" d="M542.64 209.126L329.078 85.7808C328.187 85.2681 327.177 84.9973 326.149 84.9954C325.121 84.9935 324.11 85.2605 323.216 85.7699C322.323 86.2794 321.579 87.0135 321.057 87.8995C320.535 88.7855 320.254 89.7926 320.241 90.8208V556.937C320.241 572.494 331.279 591.595 344.753 599.374L553.073 719.712C554.061 720.28 555.181 720.579 556.32 720.578C557.46 720.577 558.58 720.277 559.567 719.707C560.554 719.137 561.374 718.317 561.944 717.33C562.514 716.343 562.815 715.224 562.817 714.084V244.121C562.901 231.286 553.795 215.544 542.64 209.126Z" fill="white"/>
<path d="M392.952 117.986L396.262 131.914L467.057 172.738L479.287 166.219L392.952 117.986Z" fill="#455A64"/>
<path d="M413.767 131.443C413.767 133.762 412.087 134.686 410.138 133.543C409.092 132.849 408.223 131.918 407.602 130.827C406.98 129.736 406.623 128.514 406.56 127.26C406.56 124.958 408.24 124.018 410.189 125.177C411.234 125.868 412.103 126.795 412.725 127.883C413.346 128.972 413.703 130.191 413.767 131.443Z" fill="#263238"/>
<path d="M461.462 160.927C461.075 160.924 460.694 160.826 460.353 160.642L424.2 140.482C423.689 140.182 423.316 139.694 423.16 139.123C423.004 138.552 423.078 137.943 423.365 137.425C423.653 136.908 424.131 136.523 424.698 136.353C425.265 136.183 425.876 136.242 426.401 136.517L462.571 156.677C463.011 156.921 463.357 157.305 463.554 157.767C463.752 158.23 463.791 158.745 463.664 159.232C463.537 159.718 463.252 160.149 462.853 160.456C462.454 160.763 461.965 160.929 461.462 160.927Z" fill="#263238"/>
<path d="M365.03 182.784C362.83 181.507 361.234 182.616 361.234 185.422C361.234 186.825 361.58 188.206 362.243 189.443C362.905 190.68 363.863 191.734 365.03 192.511C365.656 192.891 366.373 193.092 367.105 193.092C367.837 193.092 368.554 192.891 369.18 192.511L372.691 198.862C371.456 199.543 370.056 199.868 368.646 199.8C367.237 199.732 365.875 199.273 364.711 198.475C361.859 196.73 359.48 194.309 357.787 191.425C356.093 188.542 355.136 185.285 355.001 181.944C355.001 175.711 359.184 173.544 364.946 176.904C368.201 179 370.866 181.891 372.691 185.304L369.18 188.093C368.314 185.974 366.878 184.136 365.03 182.784Z" fill="#428E8D"/>
<path d="M392.901 203.834C392.901 210.118 388.651 212.234 382.821 208.874C379.887 207.121 377.432 204.67 375.674 201.739C373.915 198.808 372.908 195.488 372.741 192.074C372.741 185.791 376.992 183.674 382.821 187.034C385.762 188.78 388.223 191.229 389.983 194.161C391.743 197.094 392.745 200.418 392.901 203.834ZM378.974 195.821C379.004 197.263 379.375 198.678 380.059 199.949C380.742 201.219 381.718 202.309 382.905 203.129C384.989 204.338 386.669 203.129 386.669 200.273C386.663 198.863 386.318 197.475 385.663 196.226C385.008 194.978 384.062 193.905 382.905 193.099C380.789 191.873 378.974 192.914 378.974 195.821Z" fill="#428E8D"/>
<path d="M399.672 197.165L406.929 212.285V201.398L412.423 204.574V225.758L407.383 222.835L400.159 207.85V218.669L394.632 215.477V194.242L399.672 197.165Z" fill="#428E8D"/>
<path d="M430.382 214.889V220.433L425.141 217.409V233.066L419.076 229.555V213.898L413.868 210.89V205.363L430.382 214.889Z" fill="#428E8D"/>
<path d="M442.209 239.921L435.321 235.939L434.381 238.392L428.165 234.797L435.909 218.081L442.142 221.676L449.601 247.178L443.133 243.449L442.209 239.921ZM440.714 234.041L438.833 226.8L436.901 231.84L440.714 234.041Z" fill="#428E8D"/>
<path d="M459.228 237.166C457.027 235.906 455.431 236.998 455.431 239.82C455.434 241.222 455.782 242.603 456.444 243.839C457.106 245.075 458.062 246.13 459.228 246.91C459.857 247.285 460.577 247.484 461.311 247.484C462.044 247.484 462.764 247.285 463.394 246.91L466.905 253.26C465.665 253.934 464.263 254.254 462.853 254.186C461.443 254.118 460.078 253.664 458.908 252.874C456.054 251.127 453.674 248.703 451.98 245.816C450.286 242.93 449.331 239.67 449.198 236.326C449.198 230.093 453.398 227.926 459.144 231.286C462.394 233.391 465.062 236.28 466.905 239.686L463.394 242.458C462.509 240.35 461.069 238.521 459.228 237.166Z" fill="#428E8D"/>
<path d="M483.47 245.549V251.076L478.229 248.052V263.76L472.164 260.249V244.591L466.956 241.584V236.057L483.47 245.549Z" fill="#428E8D"/>
<path d="M501.396 271.555C502.891 272.412 504.033 271.74 504.033 269.64V257.426L510.115 260.921V273.134C510.115 278.762 506.755 280.442 501.379 277.368C498.789 275.93 496.612 273.85 495.056 271.329C493.499 268.809 492.617 265.93 492.492 262.97V250.757L498.573 254.268V266.482C498.597 267.493 498.866 268.483 499.358 269.367C499.849 270.251 500.549 271.002 501.396 271.555Z" fill="#428E8D"/>
<path d="M519.909 271.622C519.221 271.236 518.784 271.219 518.784 271.858C518.784 274.512 528.276 278.342 528.276 286.02C528.276 290.724 524.697 290.741 520.565 288.355C516.932 286.129 513.802 283.171 511.375 279.67L513.626 275.705C515.473 278.565 517.845 281.05 520.615 283.03C521.505 283.55 522.077 283.55 522.077 282.794C522.077 280.039 512.568 276.377 512.568 268.934C512.568 264.701 515.659 263.894 520.43 266.582C523.504 268.441 526.209 270.85 528.41 273.689L526.209 277.754C524.392 275.439 522.273 273.377 519.909 271.622Z" fill="#428E8D"/>
<path d="M334.471 287.179C341.288 278.807 344.719 268.184 344.088 257.407C343.457 246.629 338.81 236.479 331.063 228.96C323.316 221.44 313.032 217.097 302.241 216.788C291.449 216.478 280.933 220.224 272.768 227.287C264.603 234.35 259.381 244.216 258.133 254.94C256.885 265.664 259.701 276.466 266.027 285.215C272.352 293.964 281.727 300.025 292.301 302.202C302.875 304.379 313.882 302.513 323.148 296.974L344.182 306.113L334.471 287.179Z" fill="#428E8D"/>
<path opacity="0.4" d="M334.471 287.179C341.288 278.807 344.719 268.184 344.088 257.407C343.457 246.629 338.81 236.479 331.063 228.96C323.316 221.44 313.032 217.097 302.241 216.788C291.449 216.478 280.933 220.224 272.768 227.287C264.603 234.35 259.381 244.216 258.133 254.94C256.885 265.664 259.701 276.466 266.027 285.215C272.352 293.964 281.727 300.025 292.301 302.202C302.875 304.379 313.882 302.513 323.148 296.974L344.182 306.113L334.471 287.179Z" fill="black"/>
<path d="M285.012 257.611C285.012 256.956 284.542 256.586 283.685 256.586C281.698 256.847 279.841 257.722 278.376 259.09L275.99 254.453C278.502 252.563 281.535 251.495 284.676 251.395C288.708 251.395 291.766 253.512 291.766 256.67C291.766 258.922 290.086 261.089 287.935 263.256L284.928 266.23H292.034V271.169H276.763V267.12L283.567 260.081C284.3 259.433 284.806 258.567 285.012 257.611Z" fill="white"/>
<path d="M304.467 251.681L299.83 262.802H301.728V259.056H307.575V262.802H309.792V267.389H307.575V271.169H301.728V267.389H293.412V263.222L298.452 251.681H304.467Z" fill="white"/>
<path d="M327.836 261.475V271.169H321.586V263.273C321.622 263.016 321.602 262.754 321.529 262.505C321.455 262.256 321.328 262.026 321.158 261.83C320.988 261.634 320.777 261.477 320.541 261.369C320.305 261.262 320.048 261.206 319.788 261.206C318.562 261.206 317.789 262.164 317.789 263.642V271.169H311.54V250.572H317.789V258.149C318.278 257.376 318.959 256.744 319.766 256.314C320.573 255.884 321.478 255.671 322.392 255.696C323.141 255.677 323.886 255.816 324.578 256.104C325.269 256.392 325.892 256.823 326.406 257.368C326.92 257.914 327.313 258.562 327.559 259.269C327.805 259.977 327.9 260.729 327.836 261.475Z" fill="white"/>
<path d="M531.619 417.581V626.321C531.623 628.682 531.004 631.002 529.826 633.048C528.648 635.094 526.951 636.793 524.908 637.975C522.864 639.157 520.545 639.78 518.184 639.781C515.823 639.782 513.504 639.16 511.459 637.98L399.033 573.065L379.109 561.574C372.248 557.607 366.548 551.908 362.58 545.048C358.612 538.187 356.514 530.405 356.496 522.48V313.723C356.492 311.362 357.111 309.042 358.289 306.996C359.467 304.95 361.164 303.251 363.207 302.069C365.251 300.887 367.57 300.264 369.931 300.263C372.292 300.262 374.611 300.884 376.656 302.064L509.04 378.487C515.904 382.448 521.604 388.146 525.568 395.009C529.531 401.871 531.618 409.656 531.619 417.581Z" fill="#428E8D"/>
<path opacity="0.5" d="M531.619 417.581V626.321C531.623 628.682 531.004 631.002 529.826 633.048C528.648 635.094 526.951 636.793 524.908 637.975C522.864 639.157 520.545 639.78 518.184 639.781C515.823 639.782 513.504 639.16 511.459 637.98L399.033 573.065L379.109 561.574C372.248 557.607 366.548 551.908 362.58 545.048C358.612 538.187 356.514 530.405 356.496 522.48V313.723C356.492 311.362 357.111 309.042 358.289 306.996C359.467 304.95 361.164 303.251 363.207 302.069C365.251 300.887 367.57 300.264 369.931 300.263C372.292 300.262 374.611 300.884 376.656 302.064L509.04 378.487C515.904 382.448 521.604 388.146 525.568 395.009C529.531 401.871 531.618 409.656 531.619 417.581Z" fill="white"/>
<path d="M466.855 541.094C466.855 541.094 487.906 576.005 472.702 615.367L398.983 573.065L466.855 541.094Z" fill="#263238"/>
<path d="M500.426 384.245C502.019 371.307 492.822 359.526 479.884 357.933C466.945 356.34 455.165 365.537 453.572 378.475C451.979 391.414 461.176 403.194 474.114 404.787C487.053 406.381 498.833 397.183 500.426 384.245Z" fill="#263238"/>
<path d="M477.12 315.151C477.12 315.151 484.361 303.391 486.578 304.248C488.796 305.105 485.133 316.31 485.133 316.31C485.133 316.31 496.087 318.595 494.054 321.35C492.021 324.106 478.632 323.45 478.632 323.45L477.12 315.151Z" fill="#263238"/>
<path d="M482.16 345.458C477.12 383.326 445.2 383.326 445.2 383.326L378.336 353.892C378.336 353.892 373.296 349.474 371.751 339.326C371.158 335.17 371.158 330.95 371.751 326.794C371.751 326.794 371.751 326.71 371.751 326.676C373.884 310.75 385.795 293.63 411.735 288.372C417.419 287.224 423.206 286.661 429.005 286.692C431.811 286.682 434.615 286.822 437.405 287.112C457.565 289.094 471.694 298.502 478.431 313.135C479.946 316.438 481.073 319.905 481.791 323.467C483.158 330.724 483.283 338.16 482.16 345.458Z" fill="#263238"/>
<path d="M321.636 418.706C321.636 418.706 297.898 417.883 288.759 441.017C288.759 441.017 298.839 447.821 312.06 441.017C325.282 434.213 321.636 418.706 321.636 418.706Z" fill="#428E8D"/>
<path opacity="0.5" d="M321.636 418.706C321.636 418.706 297.898 417.883 288.759 441.017C288.759 441.017 298.839 447.821 312.06 441.017C325.282 434.213 321.636 418.706 321.636 418.706Z" fill="black"/>
<path d="M320.964 429.845C320.964 429.845 314.244 400.646 310.699 400.294C307.154 399.941 306.465 409.198 306.751 414.422L298.351 396.346C298.085 395.784 297.706 395.283 297.238 394.873C296.771 394.463 296.224 394.153 295.632 393.963C295.04 393.773 294.416 393.705 293.797 393.766C293.178 393.826 292.578 394.012 292.034 394.313C283.634 398.933 268.901 412.978 299.964 447.703L320.964 429.845Z" fill="#945959"/>
<path d="M406.98 409.651L401.94 408.996C396.861 408.323 391.694 409.013 386.97 410.997C382.246 412.981 378.136 416.187 375.06 420.286L345.072 460.202L321.552 418.706C321.552 418.706 318.73 446.93 288.675 441.017L320.948 495.331C322.99 498.77 325.833 501.664 329.234 503.768C332.635 505.872 336.494 507.123 340.483 507.415C344.472 507.707 348.472 507.031 352.143 505.445C355.815 503.859 359.049 501.409 361.57 498.305L389.189 464.352L406.98 409.651Z" fill="#428E8D"/>
<path d="M470.988 502.807C464.268 519.842 463.529 523.169 467.628 531.686C470.483 537.977 472.733 544.525 474.348 551.242C474.348 551.242 443.201 586.152 398.866 573.082L378.941 561.59C374.797 559.201 371.065 556.16 367.887 552.586L373.951 507.36C374.257 504.979 374.015 502.561 373.246 500.287L366.879 481.622C363.772 472.506 363.309 462.696 365.545 453.328C367.781 443.96 372.623 435.416 379.512 428.686L400.915 407.77L457.128 414.96L465.528 417.362C471.027 418.953 475.768 422.474 478.879 427.28C481.99 432.085 483.262 437.852 482.463 443.52C479.707 463.344 475.205 492.106 470.988 502.807Z" fill="#428E8D"/>
<path opacity="0.5" d="M470.988 502.807C464.268 519.842 463.529 523.169 467.628 531.686C470.483 537.977 472.733 544.525 474.348 551.242C474.348 551.242 443.201 586.152 398.866 573.082L378.941 561.59C374.797 559.201 371.065 556.16 367.887 552.586L373.951 507.36C374.257 504.979 374.015 502.561 373.246 500.287L366.879 481.622C363.772 472.506 363.309 462.696 365.545 453.328C367.781 443.96 372.623 435.416 379.512 428.686L400.915 407.77L457.128 414.96L465.528 417.362C471.027 418.953 475.768 422.474 478.879 427.28C481.99 432.085 483.262 437.852 482.463 443.52C479.707 463.344 475.205 492.106 470.988 502.807Z" fill="black"/>
<path d="M437.086 451.92L425.83 442.327C424.638 441.307 423.2 440.616 421.659 440.321C420.119 440.027 418.528 440.139 417.043 440.647L403.435 445.334L401.604 437.707C401.318 436.521 400.795 435.404 400.066 434.425C399.337 433.446 398.417 432.625 397.362 432.011C396.307 431.397 395.139 431.004 393.928 430.854C392.717 430.704 391.487 430.8 390.315 431.138L384.418 432.818L394.397 413.7C397.655 407.473 402.674 402.343 408.828 398.95L412.742 396.799L445.082 398.479C445.082 398.479 457.128 403.519 457.128 414.859L437.086 451.819" fill="#428E8D"/>
<path d="M445.217 412.81L412.793 438.077V357.622H445.217V412.81Z" fill="#945959"/>
<path d="M413.297 406.174L403.435 445.402L445.082 412.81L413.297 406.174Z" fill="#945959"/>
<path d="M412.793 400.344C420.003 397.667 426.593 393.552 432.164 388.25C437.735 382.948 442.17 376.568 445.2 369.499V357.622H412.776L412.793 400.344Z" fill="#703838"/>
<path d="M419.782 297.998C407.484 297.998 381.343 304.853 378.319 337.042C375.295 369.23 378.219 394.162 394.817 396.581C411.415 399 449.988 386.954 455.163 345.29C460.337 303.626 431.76 297.998 419.782 297.998Z" fill="#945959"/>
<path d="M400.428 350.666V369.634L389.306 366.223L400.428 350.666Z" fill="#703838"/>
<path d="M412.793 357.806C414.927 357.806 416.657 356.076 416.657 353.942C416.657 351.808 414.927 350.078 412.793 350.078C410.659 350.078 408.929 351.808 408.929 353.942C408.929 356.076 410.659 357.806 412.793 357.806Z" fill="#263238"/>
<path d="M391.222 351.254C391.218 352.018 390.989 352.763 390.562 353.397C390.136 354.03 389.531 354.522 388.825 354.812C388.118 355.102 387.342 355.176 386.594 355.025C385.845 354.874 385.158 354.505 384.619 353.964C384.081 353.423 383.714 352.734 383.567 351.985C383.419 351.236 383.496 350.46 383.789 349.755C384.082 349.05 384.578 348.448 385.213 348.024C385.848 347.6 386.594 347.374 387.358 347.374C387.866 347.374 388.37 347.474 388.84 347.669C389.31 347.865 389.737 348.151 390.096 348.511C390.455 348.872 390.739 349.3 390.932 349.771C391.126 350.241 391.224 350.746 391.222 351.254Z" fill="#263238"/>
<path d="M382.637 343.19L390.197 338.705C390.197 338.705 387.307 335.698 384.417 337.495C381.528 339.293 382.637 343.19 382.637 343.19Z" fill="#263238"/>
<path d="M395.203 377.328C398.885 377.597 402.549 376.614 405.603 374.539C405.603 374.539 406.325 380.033 401.722 381.074C397.119 382.116 395.203 377.328 395.203 377.328Z" fill="#703838"/>
<path d="M388.601 308.952C388.601 308.952 393.221 353.388 453.65 354.782C453.65 354.782 471.912 310.615 435.826 296.268C399.739 281.921 388.601 308.952 388.601 308.952Z" fill="#263238"/>
<path d="M471.442 348.13L464.016 343.829C461.194 342.149 457.296 342.384 452.979 344.87C444.411 349.81 437.455 361.855 437.455 371.75C437.455 376.706 439.135 380.15 442.025 381.83L449.316 386.03L449.736 386.266L449.988 386.417C452.743 387.761 456.422 387.442 460.471 385.106C469.039 380.066 475.994 368.122 475.994 358.226C475.944 353.22 474.214 349.759 471.442 348.13Z" fill="#428E8D"/>
<path d="M471.383 373.434C477.442 362.94 477.442 351.597 471.383 348.099C465.325 344.601 455.502 350.273 449.443 360.767C443.384 371.261 443.384 382.604 449.443 386.102C455.501 389.6 465.324 383.928 471.383 373.434Z" fill="#428E8D"/>
<path opacity="0.5" d="M471.383 373.434C477.442 362.94 477.442 351.597 471.383 348.099C465.325 344.601 455.502 350.273 449.443 360.767C443.384 371.261 443.384 382.604 449.443 386.102C455.501 389.6 465.324 383.928 471.383 373.434Z" fill="black"/>
<path d="M474.415 357.454L469.375 354.514C467.46 353.371 464.789 353.522 461.832 355.219C458.743 357.238 456.173 359.955 454.329 363.15C452.484 366.346 451.417 369.931 451.215 373.615C451.215 376.975 452.407 379.378 454.339 380.486L459.379 383.359C459.469 383.424 459.564 383.481 459.665 383.527L459.833 383.628C461.014 384.076 462.288 384.228 463.541 384.07C464.795 383.911 465.99 383.448 467.023 382.721C470.11 380.704 472.679 377.99 474.523 374.797C476.368 371.604 477.436 368.023 477.641 364.342C477.507 360.931 476.331 358.562 474.415 357.454Z" fill="#428E8D"/>
<path d="M477.507 364.308C477.301 367.989 476.233 371.571 474.389 374.763C472.545 377.956 469.976 380.67 466.889 382.687C461.009 386.047 456.255 383.326 456.255 376.555C456.454 372.871 457.521 369.285 459.369 366.091C461.217 362.897 463.794 360.185 466.889 358.176C472.752 354.782 477.507 357.521 477.507 364.308Z" fill="#428E8D"/>
<path opacity="0.3" d="M477.507 364.308C477.301 367.989 476.233 371.571 474.389 374.763C472.545 377.956 469.976 380.67 466.889 382.687C461.009 386.047 456.255 383.326 456.255 376.555C456.454 372.871 457.521 369.285 459.369 366.091C461.217 362.897 463.794 360.185 466.889 358.176C472.752 354.782 477.507 357.521 477.507 364.308Z" fill="black"/>
<path d="M448.375 289.33C443.559 285.61 437.66 283.563 431.575 283.5H430.08C423.918 283.434 417.765 283.997 411.718 285.18C412.826 285.18 413.935 285.18 415.078 285.18H411.718V288.305H414.842C425.612 288.671 435.816 293.211 443.3 300.964C450.783 308.717 454.959 319.076 454.944 329.851V343.073C454.943 343.595 455.053 344.112 455.265 344.59C455.477 345.068 455.787 345.495 456.175 345.845C456.564 346.196 457.021 346.46 457.518 346.622C458.015 346.784 458.54 346.84 459.06 346.786H459.446L462.806 345.744C462.583 345.815 462.351 345.86 462.118 345.878C463.119 345.742 464.036 345.243 464.693 344.474C465.35 343.706 465.701 342.723 465.679 341.712V329.448C465.646 307.255 456.053 295.327 448.375 289.33Z" fill="#428E8D"/>
<path d="M427.224 395.657C425.839 395.657 424.469 395.359 423.209 394.783L412.709 389.928C412.545 389.869 412.394 389.777 412.268 389.657C412.141 389.538 412.04 389.393 411.972 389.232C411.905 389.071 411.871 388.898 411.873 388.724C411.876 388.55 411.914 388.378 411.987 388.219C412.059 388.06 412.163 387.918 412.294 387.802C412.424 387.686 412.576 387.598 412.742 387.544C412.908 387.49 413.083 387.47 413.257 387.488C413.43 387.505 413.598 387.558 413.751 387.643L424.251 392.498C425.59 393.121 427.09 393.31 428.541 393.039C429.993 392.768 431.324 392.05 432.348 390.986L442.428 380.57C442.664 380.334 442.985 380.202 443.319 380.202C443.652 380.202 443.973 380.334 444.209 380.57C444.441 380.809 444.571 381.128 444.571 381.461C444.571 381.793 444.441 382.113 444.209 382.351L434.129 392.767C433.232 393.689 432.158 394.419 430.971 394.916C429.785 395.412 428.51 395.664 427.224 395.657Z" fill="#428E8D"/>
<path opacity="0.5" d="M427.224 395.657C425.839 395.657 424.469 395.359 423.209 394.783L412.709 389.928C412.545 389.869 412.394 389.777 412.268 389.657C412.141 389.538 412.04 389.393 411.972 389.232C411.905 389.071 411.871 388.898 411.873 388.724C411.876 388.55 411.914 388.378 411.987 388.219C412.059 388.06 412.163 387.918 412.294 387.802C412.424 387.686 412.576 387.598 412.742 387.544C412.908 387.49 413.083 387.47 413.257 387.488C413.43 387.505 413.598 387.558 413.751 387.643L424.251 392.498C425.59 393.121 427.09 393.31 428.541 393.039C429.993 392.768 431.324 392.05 432.348 390.986L442.428 380.57C442.664 380.334 442.985 380.202 443.319 380.202C443.652 380.202 443.973 380.334 444.209 380.57C444.441 380.809 444.571 381.128 444.571 381.461C444.571 381.793 444.441 382.113 444.209 382.351L434.129 392.767C433.232 393.689 432.158 394.419 430.971 394.916C429.785 395.412 428.51 395.664 427.224 395.657Z" fill="black"/>
<path d="M415.464 386.4C415.464 387.37 415.176 388.319 414.637 389.125C414.098 389.932 413.332 390.561 412.435 390.932C411.539 391.303 410.553 391.401 409.601 391.211C408.65 391.022 407.775 390.555 407.089 389.869C406.403 389.183 405.936 388.309 405.747 387.357C405.558 386.405 405.655 385.419 406.026 384.523C406.397 383.626 407.026 382.86 407.833 382.321C408.64 381.782 409.588 381.494 410.558 381.494C411.859 381.494 413.107 382.011 414.027 382.931C414.947 383.851 415.464 385.099 415.464 386.4Z" fill="#428E8D"/>
<path opacity="0.5" d="M415.464 386.4C415.464 387.37 415.176 388.319 414.637 389.125C414.098 389.932 413.332 390.561 412.435 390.932C411.539 391.303 410.553 391.401 409.601 391.211C408.65 391.022 407.775 390.555 407.089 389.869C406.403 389.183 405.936 388.309 405.747 387.357C405.558 386.405 405.655 385.419 406.026 384.523C406.397 383.626 407.026 382.86 407.833 382.321C408.64 381.782 409.588 381.494 410.558 381.494C411.859 381.494 413.107 382.011 414.027 382.931C414.947 383.851 415.464 385.099 415.464 386.4Z" fill="black"/>
<path d="M465.646 329.448V341.712C465.667 342.723 465.316 343.706 464.659 344.474C464.003 345.243 463.086 345.742 462.084 345.878C461.531 345.937 460.971 345.879 460.442 345.708C459.912 345.536 459.425 345.255 459.011 344.882C458.598 344.51 458.267 344.055 458.041 343.546C457.815 343.037 457.699 342.487 457.699 341.93V329.448C457.709 323.491 456.513 317.593 454.184 312.11C451.855 306.627 448.44 301.671 444.146 297.542C439.852 293.413 434.767 290.195 429.197 288.082C423.627 285.969 417.687 285.005 411.735 285.247C417.782 284.064 423.935 283.501 430.097 283.567H431.559C437.644 283.63 443.542 285.677 448.359 289.397C456.053 295.327 465.646 307.255 465.646 329.448Z" fill="#428E8D"/>
<path opacity="0.5" d="M465.646 329.448V341.712C465.667 342.723 465.316 343.706 464.659 344.474C464.003 345.243 463.086 345.742 462.084 345.878C461.531 345.937 460.971 345.879 460.442 345.708C459.912 345.536 459.425 345.255 459.011 344.882C458.598 344.51 458.267 344.055 458.041 343.546C457.815 343.037 457.699 342.487 457.699 341.93V329.448C457.709 323.491 456.513 317.593 454.184 312.11C451.855 306.627 448.44 301.671 444.146 297.542C439.852 293.413 434.767 290.195 429.197 288.082C423.627 285.969 417.687 285.005 411.735 285.247C417.782 284.064 423.935 283.501 430.097 283.567H431.559C437.644 283.63 443.542 285.677 448.359 289.397C456.053 295.327 465.646 307.255 465.646 329.448Z" fill="black"/>
<path d="M446.763 560.566C446.763 560.566 438.631 582.96 467.695 593.04C467.695 593.04 477.187 579.096 467.695 567.689C458.203 556.282 446.763 560.566 446.763 560.566Z" fill="#428E8D"/>
<path opacity="0.7" d="M446.763 560.566C446.763 560.566 438.631 582.96 467.695 593.04C467.695 593.04 477.187 579.096 467.695 567.689C458.203 556.282 446.763 560.566 446.763 560.566Z" fill="black"/>
<path d="M456.96 561.59C456.96 561.59 428.568 571.99 428.72 576.022C428.871 580.054 440.782 577.298 440.782 577.298L436.431 580.154C431.849 583.144 428.3 587.473 426.267 592.553C425.824 593.673 425.808 594.917 426.223 596.048C426.639 597.179 427.455 598.117 428.518 598.685L439.304 604.397C439.913 604.72 440.58 604.918 441.267 604.978C441.954 605.039 442.646 604.961 443.302 604.75C443.959 604.538 444.566 604.197 445.088 603.747C445.61 603.297 446.037 602.747 446.343 602.129C446.944 600.941 447.775 599.884 448.787 599.019C449.799 598.154 450.973 597.498 452.24 597.089C458.103 595.14 469.04 589.529 473.424 574.174L456.96 561.59Z" fill="#945959"/>
<path d="M465.477 417.329C465.477 417.329 450.357 425.729 458.388 451.231C466.418 476.734 481.488 516.298 481.488 516.298L446.762 560.566C450.472 561.013 454.046 562.238 457.251 564.16C460.455 566.082 463.218 568.658 465.36 571.721C467.411 574.835 468.693 578.392 469.099 582.099C469.505 585.806 469.024 589.556 467.695 593.04L510.804 537.6C514.79 532.477 517.437 526.44 518.505 520.037C519.573 513.634 519.028 507.065 516.919 500.926L498.439 446.964C496.18 440.372 492.426 434.393 487.472 429.494C482.517 424.594 476.496 420.908 469.879 418.723L465.477 417.329Z" fill="#428E8D"/>
<path d="M210.252 266.683L143.438 228.043C142.67 227.51 141.78 227.177 140.85 227.075C139.92 226.972 138.979 227.103 138.113 227.455C137.93 227.54 137.756 227.641 137.592 227.758L123.06 236.275H123.161C121.33 237.317 120.17 239.736 120.17 243.197V317.52C120.17 323.803 123.984 331.111 128.705 333.833L195.518 372.473C196.366 373.086 197.375 373.437 198.421 373.481C199.466 373.526 200.501 373.263 201.398 372.725C201.353 372.743 201.313 372.772 201.281 372.809L215.712 364.409C217.594 363.401 218.786 360.948 218.786 357.437V282.996C218.786 276.713 215.04 269.405 210.252 266.683Z" fill="#428E8D"/>
<path d="M216.401 273.722C215.049 270.848 212.919 268.409 210.252 266.683L143.438 228.043C142.669 227.51 141.78 227.177 140.85 227.075C139.92 226.972 138.979 227.103 138.113 227.455C137.93 227.54 137.756 227.641 137.592 227.758L123.06 236.275C123.949 235.821 124.946 235.62 125.941 235.694C126.937 235.768 127.893 236.114 128.705 236.695L195.518 275.335C198.276 277.138 200.462 279.691 201.818 282.694L216.401 273.722Z" fill="#428E8D"/>
<path d="M204.053 365.938C204.053 369.298 202.978 371.633 201.281 372.658L215.712 364.258C217.594 363.25 218.786 360.797 218.786 357.286V282.996C218.715 279.762 217.899 276.589 216.401 273.722L201.818 282.694C203.218 285.476 203.982 288.534 204.053 291.648V365.938Z" fill="#428E8D"/>
<path opacity="0.3" d="M216.401 273.722C215.049 270.848 212.919 268.409 210.252 266.683L143.438 228.043C142.669 227.51 141.78 227.177 140.85 227.075C139.92 226.972 138.979 227.103 138.113 227.455C137.93 227.54 137.756 227.641 137.592 227.758L123.06 236.275C123.949 235.821 124.946 235.62 125.941 235.694C126.937 235.768 127.893 236.114 128.705 236.695L195.518 275.335C198.276 277.138 200.462 279.691 201.818 282.694L216.401 273.722Z" fill="black"/>
<path opacity="0.6" d="M204.053 365.938C204.053 369.298 202.978 371.633 201.281 372.658L215.712 364.258C217.594 363.25 218.786 360.797 218.786 357.286V282.996C218.715 279.762 217.899 276.589 216.401 273.722L201.818 282.694C203.218 285.476 203.982 288.534 204.053 291.648V365.938Z" fill="black"/>
<path d="M184.464 312.934C184.464 322.56 180.65 325.836 174.938 322.526C173.363 321.629 171.985 320.423 170.888 318.979C169.791 317.535 168.997 315.885 168.554 314.126C166.874 316.193 164.27 316.327 160.608 314.21C154.594 310.733 149.856 302.45 149.856 294.403C149.856 286.356 154.543 283.584 160.608 287.078C163.686 288.892 166.171 291.559 167.765 294.756V291.581L174.098 295.243V312.648C174.004 313.564 174.163 314.488 174.556 315.32C174.95 316.153 175.565 316.861 176.333 317.369C178.466 318.612 179.777 316.512 179.777 310.279C179.777 299.376 172.788 287.818 162.456 281.854C152.124 275.89 145.152 280.039 145.152 291.262C145.287 297.217 146.928 303.04 149.922 308.19C152.915 313.339 157.164 317.647 162.271 320.712C165.045 322.42 168.194 323.424 171.444 323.635L172.939 329.431C169.155 329.126 165.497 327.922 162.271 325.92C148.831 318.142 139.944 302.484 139.944 288.305C139.944 274.126 148.915 268.985 162.456 276.814C175.543 284.357 184.464 299.46 184.464 312.934ZM167.866 304.853C167.898 302.723 167.379 300.62 166.357 298.75C165.335 296.881 163.847 295.308 162.036 294.185C158.676 292.219 156.274 293.597 156.274 298.166C156.23 300.3 156.738 302.409 157.747 304.289C158.757 306.17 160.234 307.758 162.036 308.902C165.396 310.8 167.866 309.574 167.866 304.853Z" fill="#428E8D"/>
<g opacity="0.9">
<path d="M184.464 312.934C184.464 322.56 180.65 325.836 174.938 322.526C173.363 321.629 171.985 320.423 170.888 318.979C169.791 317.535 168.997 315.885 168.554 314.126C166.874 316.193 164.27 316.327 160.608 314.21C154.594 310.733 149.856 302.45 149.856 294.403C149.856 286.356 154.543 283.584 160.608 287.078C163.686 288.892 166.171 291.559 167.765 294.756V291.581L174.098 295.243V312.648C174.004 313.564 174.163 314.488 174.556 315.32C174.95 316.153 175.565 316.861 176.333 317.369C178.466 318.612 179.777 316.512 179.777 310.279C179.777 299.376 172.788 287.818 162.456 281.854C152.124 275.89 145.152 280.039 145.152 291.262C145.287 297.217 146.928 303.04 149.922 308.19C152.915 313.339 157.164 317.647 162.271 320.712C165.045 322.42 168.194 323.424 171.444 323.635L172.939 329.431C169.155 329.126 165.497 327.922 162.271 325.92C148.831 318.142 139.944 302.484 139.944 288.305C139.944 274.126 148.915 268.985 162.456 276.814C175.543 284.357 184.464 299.46 184.464 312.934ZM167.866 304.853C167.898 302.723 167.379 300.62 166.357 298.75C165.335 296.881 163.847 295.308 162.036 294.185C158.676 292.219 156.274 293.597 156.274 298.166C156.23 300.3 156.738 302.409 157.747 304.289C158.757 306.17 160.234 307.758 162.036 308.902C165.396 310.8 167.866 309.574 167.866 304.853Z" fill="white"/>
</g>
<path d="M210.252 399.034L143.438 360.394C142.671 359.858 141.78 359.524 140.849 359.425C139.918 359.325 138.977 359.462 138.113 359.822C137.93 359.907 137.756 360.008 137.592 360.125L123.06 368.642H123.161C121.33 369.684 120.17 372.103 120.17 375.547V449.837C120.17 456.137 123.984 463.428 128.705 466.15L195.518 504.79C196.364 505.407 197.374 505.76 198.42 505.805C199.467 505.85 200.503 505.584 201.398 505.042L201.281 505.142L215.712 496.658C217.594 495.667 218.786 493.298 218.786 489.686V415.33C218.786 409.046 215.04 401.755 210.252 399.034Z" fill="#428E8D"/>
<path d="M216.401 406.073C215.053 403.195 212.922 400.755 210.252 399.034L143.438 360.394C142.67 359.858 141.78 359.524 140.849 359.425C139.918 359.325 138.977 359.462 138.113 359.822C137.93 359.907 137.756 360.008 137.592 360.125L123.06 368.642C123.947 368.184 124.943 367.979 125.939 368.05C126.935 368.121 127.892 368.466 128.705 369.046L195.518 407.686C198.28 409.491 200.467 412.051 201.818 415.061L216.401 406.073Z" fill="#428E8D"/>
<path d="M204.053 498.271C204.053 501.631 202.978 503.966 201.281 505.075L215.712 496.591C217.594 495.6 218.786 493.231 218.786 489.619V415.33C218.715 412.101 217.899 408.933 216.401 406.073L201.818 415.044C203.218 417.82 203.981 420.873 204.053 423.982V498.271Z" fill="#428E8D"/>
<path opacity="0.3" d="M216.401 406.073C215.053 403.195 212.922 400.755 210.252 399.034L143.438 360.394C142.67 359.858 141.78 359.524 140.849 359.425C139.918 359.325 138.977 359.462 138.113 359.822C137.93 359.907 137.756 360.008 137.592 360.125L123.06 368.642C123.947 368.184 124.943 367.979 125.939 368.05C126.935 368.121 127.892 368.466 128.705 369.046L195.518 407.686C198.28 409.491 200.467 412.051 201.818 415.061L216.401 406.073Z" fill="black"/>
<path opacity="0.6" d="M204.053 498.271C204.053 501.631 202.978 503.966 201.281 505.075L215.712 496.591C217.594 495.6 218.786 493.231 218.786 489.619V415.33C218.715 412.101 217.899 408.933 216.401 406.073L201.818 415.044C203.218 417.82 203.981 420.873 204.053 423.982V498.271Z" fill="black"/>
<path d="M154.644 432.247L138.533 406.073V441.538L154.644 432.247Z" fill="#428E8D"/>
<path d="M169.613 439.79L185.69 467.628V432.214L169.613 439.79Z" fill="#428E8D"/>
<path d="M140.969 404.88L157.517 431.76C157.587 431.819 157.649 431.887 157.702 431.962C157.716 432.028 157.716 432.097 157.702 432.163L162.624 440.16L166.79 438.194C166.855 438.124 166.929 438.062 167.009 438.01C167.173 437.914 167.357 437.856 167.546 437.842L184.346 429.962L140.969 404.88Z" fill="#428E8D"/>
<path d="M167.177 440.933L162.675 443.05C162.501 443.13 162.311 443.171 162.12 443.167C161.888 443.17 161.66 443.112 161.457 443.001C161.253 442.889 161.083 442.726 160.961 442.529L156.039 434.532L139.877 443.873L183.372 468.972L167.177 440.933Z" fill="#428E8D"/>
<g opacity="0.9">
<path d="M154.644 432.247L138.533 406.073V441.538L154.644 432.247Z" fill="white"/>
<path d="M169.613 439.79L185.69 467.628V432.214L169.613 439.79Z" fill="white"/>
<path d="M140.969 404.88L157.517 431.76C157.587 431.819 157.649 431.887 157.701 431.962C157.716 432.028 157.716 432.097 157.701 432.163L162.624 440.16L166.79 438.194C166.855 438.124 166.928 438.062 167.009 438.01C167.173 437.914 167.357 437.856 167.546 437.842L184.346 429.962L140.969 404.88Z" fill="white"/>
<path d="M167.177 440.933L162.675 443.05C162.501 443.13 162.311 443.171 162.12 443.167C161.888 443.17 161.66 443.112 161.457 443.001C161.253 442.889 161.083 442.726 160.961 442.529L156.039 434.532L139.877 443.873L183.372 468.972L167.177 440.933Z" fill="white"/>
</g>
<path d="M210.252 134.4L143.438 95.76C142.671 95.2241 141.78 94.8908 140.849 94.7909C139.918 94.6911 138.977 94.8279 138.113 95.1888C137.93 95.2731 137.756 95.3744 137.592 95.4912L123.06 104.009H123.161C121.33 105.034 120.17 107.47 120.17 110.914V185.203C120.17 191.486 123.984 198.794 128.705 201.516L195.518 240.156C196.364 240.773 197.374 241.127 198.42 241.171C199.467 241.216 200.503 240.951 201.398 240.408L201.281 240.492L215.712 232.092C217.594 231.101 218.786 228.732 218.786 225.12V150.646C218.786 144.362 215.04 137.054 210.252 134.4Z" fill="#428E8D"/>
<path d="M216.401 141.389C215.054 138.506 212.923 136.061 210.252 134.333L143.438 95.76C142.67 95.2241 141.78 94.8908 140.849 94.791C139.918 94.6911 138.977 94.8279 138.113 95.1888C137.93 95.2731 137.756 95.3744 137.592 95.4912L123.06 104.009C123.947 103.55 124.943 103.345 125.939 103.416C126.935 103.487 127.892 103.832 128.705 104.412L195.518 143.052C198.28 144.857 200.467 147.417 201.818 150.427L216.401 141.389Z" fill="#428E8D"/>
<path d="M204.053 233.52C204.053 236.88 202.978 239.215 201.281 240.24L215.712 231.84C217.594 230.849 218.786 228.48 218.786 224.868V150.646C218.715 147.417 217.899 144.249 216.401 141.389L201.818 150.36C203.218 153.136 203.981 156.189 204.053 159.298V233.52Z" fill="#428E8D"/>
<path opacity="0.3" d="M216.401 141.389C215.054 138.506 212.923 136.061 210.252 134.333L143.438 95.76C142.67 95.2241 141.78 94.8908 140.849 94.791C139.918 94.6911 138.977 94.8279 138.113 95.1888C137.93 95.2731 137.756 95.3744 137.592 95.4912L123.06 104.009C123.947 103.55 124.943 103.345 125.939 103.416C126.935 103.487 127.892 103.832 128.705 104.412L195.518 143.052C198.28 144.857 200.467 147.417 201.818 150.427L216.401 141.389Z" fill="black"/>
<path opacity="0.6" d="M204.053 233.52C204.053 236.88 202.978 239.215 201.281 240.24L215.712 231.84C217.594 230.849 218.786 228.48 218.786 224.868V150.646C218.715 147.417 217.899 144.249 216.401 141.389L201.818 150.36C203.218 153.136 203.981 156.189 204.053 159.298V233.52Z" fill="black"/>
<path d="M182.196 201.6C179.625 197.366 177.038 193.2 174.468 188.933C174.06 188.125 173.49 187.409 172.794 186.831C172.097 186.253 171.289 185.825 170.419 185.573C169.176 185.321 167.933 185.035 166.656 184.666C166.201 184.476 165.819 184.146 165.564 183.725C161.358 176.526 158.014 168.857 155.601 160.877C155.55 160.706 155.536 160.527 155.559 160.35C155.582 160.173 155.642 160.004 155.736 159.852C156.525 159.062 157.416 158.34 158.222 157.634C159.029 156.929 159.449 155.299 158.861 153.182C157.617 148.697 156.425 144.211 155.181 139.742C154.941 138.473 154.37 137.289 153.527 136.31C152.683 135.33 151.597 134.591 150.377 134.165C147.667 133.412 144.791 133.517 142.145 134.467C141.12 134.854 140.582 135.778 140.565 137.374C141.002 140.448 141.288 143.489 141.876 146.614C146.02 169.148 155.988 189.868 171.78 208.774C172.192 209.401 172.746 209.922 173.397 210.295C174.048 210.669 174.777 210.884 175.526 210.924C178.141 210.862 180.653 209.894 182.633 208.186C184.128 206.842 183.977 204.456 182.196 201.6Z" fill="#428E8D"/>
<path d="M181.995 178.702C181.643 173.869 180.311 169.159 178.08 164.858C176.414 161.499 174.294 158.384 171.78 155.602C171.125 154.862 170.571 154.627 170.235 155.182C169.899 155.736 170.235 156.526 170.873 157.248L171.528 158.004C176.172 163.364 179.098 169.995 179.928 177.038C179.92 177.552 179.971 178.065 180.079 178.567C180.29 179.145 180.629 179.668 181.071 180.096C181.423 180.348 181.827 180.096 182.112 180.096C182.011 179.407 182.028 179.054 181.995 178.702Z" fill="#428E8D"/>
<path d="M166.774 164.909C168.883 167.229 170.165 170.183 170.419 173.309C170.53 173.784 170.705 174.242 170.94 174.67C171.965 175.51 172.469 175.224 172.469 174.166C172.11 170.158 170.452 166.377 167.748 163.397C167.11 162.742 166.589 162.54 166.287 163.094C166.178 163.411 166.166 163.753 166.253 164.076C166.34 164.399 166.521 164.689 166.774 164.909Z" fill="#428E8D"/>
<g opacity="0.9">
<path d="M182.196 201.6C179.625 197.366 177.038 193.2 174.468 188.933C174.06 188.125 173.49 187.409 172.794 186.831C172.097 186.253 171.289 185.825 170.419 185.573C169.176 185.321 167.933 185.035 166.656 184.666C166.201 184.476 165.819 184.146 165.564 183.725C161.358 176.526 158.014 168.857 155.601 160.877C155.55 160.706 155.536 160.527 155.559 160.35C155.582 160.173 155.642 160.004 155.736 159.852C156.525 159.062 157.416 158.34 158.222 157.634C159.029 156.929 159.449 155.299 158.861 153.182C157.617 148.697 156.425 144.211 155.181 139.742C154.941 138.473 154.37 137.289 153.527 136.31C152.683 135.33 151.597 134.591 150.377 134.165C147.667 133.412 144.791 133.517 142.145 134.467C141.12 134.854 140.582 135.778 140.565 137.374C141.002 140.448 141.288 143.489 141.876 146.614C146.02 169.148 155.988 189.868 171.78 208.774C172.192 209.401 172.746 209.922 173.397 210.295C174.048 210.669 174.777 210.884 175.526 210.924C178.141 210.862 180.653 209.894 182.633 208.186C184.128 206.842 183.977 204.456 182.196 201.6Z" fill="white"/>
<path d="M181.994 178.702C181.643 173.869 180.311 169.159 178.08 164.858C176.414 161.499 174.294 158.384 171.78 155.602C171.124 154.862 170.57 154.627 170.234 155.182C169.898 155.736 170.234 156.526 170.872 157.248L171.528 158.004C176.171 163.364 179.098 169.995 179.928 177.038C179.919 177.552 179.97 178.065 180.079 178.567C180.29 179.145 180.629 179.668 181.07 180.096C181.423 180.348 181.826 180.096 182.112 180.096C182.011 179.407 182.028 179.054 181.994 178.702Z" fill="white"/>
<path d="M166.773 164.909C168.883 167.229 170.165 170.183 170.419 173.309C170.529 173.784 170.705 174.242 170.94 174.67C171.964 175.51 172.468 175.224 172.468 174.166C172.109 170.158 170.452 166.377 167.748 163.397C167.109 162.742 166.588 162.54 166.286 163.094C166.177 163.411 166.165 163.753 166.252 164.076C166.339 164.399 166.52 164.689 166.773 164.909Z" fill="white"/>
</g>
<path d="M553.056 89.8464L568.797 98.8008V93.2232C568.797 92.8368 568.797 92.4336 568.797 92.0472C568.797 91.6608 568.797 91.2912 568.797 90.9216V90.72C569.369 83.3448 574.963 80.5056 581.784 84.4536C584.872 86.3529 587.518 88.8904 589.546 91.896C591.074 81.816 599.256 78.2544 609.151 83.9496C620.138 90.3 629.042 105.79 629.042 118.423V130.351C629.027 131.305 629.262 132.247 629.725 133.081C630.188 133.916 630.862 134.614 631.68 135.106L640.953 140.532C642.955 141.719 644.614 143.404 645.768 145.425C646.923 147.445 647.533 149.73 647.539 152.057C647.539 153.022 647.285 153.97 646.802 154.806C646.32 155.642 645.625 156.336 644.789 156.818C643.952 157.3 643.004 157.553 642.039 157.552C641.073 157.551 640.125 157.295 639.29 156.811L553.291 107.1C551.01 105.775 549.115 103.876 547.794 101.592C546.474 99.308 545.774 96.7182 545.765 94.08C545.764 93.226 545.987 92.3869 546.413 91.6466C546.839 90.9063 547.452 90.2909 548.19 89.8621C548.929 89.4333 549.767 89.2061 550.621 89.2034C551.475 89.2006 552.315 89.4224 553.056 89.8464Z" fill="#E6E6E6"/>
<path d="M673.058 87.5112L684.499 94.08V89.9808C684.499 89.6952 684.499 89.4096 684.499 89.124C684.499 88.8384 684.499 88.5696 684.499 88.3008V88.2C684.919 82.8408 688.985 80.7744 693.941 83.6472C696.185 85.0223 698.109 86.8609 699.586 89.04C700.711 81.7488 706.658 79.1112 713.849 83.2608C721.846 87.8808 728.314 99.1032 728.314 108.326V117.012C728.32 117.693 728.502 118.36 728.844 118.949C729.186 119.538 729.674 120.029 730.262 120.372L736.982 124.32C738.445 125.18 739.656 126.408 740.496 127.882C741.336 129.355 741.776 131.024 741.77 132.72C741.769 133.415 741.587 134.097 741.242 134.7C740.897 135.303 740.4 135.806 739.802 136.159C739.203 136.511 738.523 136.702 737.828 136.712C737.134 136.722 736.448 136.55 735.84 136.214L673.226 100.061C671.567 99.1009 670.19 97.7219 669.231 96.0619C668.273 94.4019 667.768 92.5192 667.766 90.6024C667.765 89.982 667.927 89.3722 668.235 88.8339C668.543 88.2955 668.988 87.8475 669.523 87.5346C670.059 87.2217 670.667 87.0549 671.288 87.0508C671.908 87.0467 672.519 87.2054 673.058 87.5112Z" fill="#E6E6E6"/>
</svg>
